<svg xmlns="http://www.w3.org/2000/svg" xmlns:xlink="http://www.w3.org/1999/xlink" width="26" height="21" viewBox="0 0 26 21">
  <defs>
    <clipPath id="clip-path">
      <rect id="Rectangle_166" data-name="Rectangle 166" width="26" height="21" transform="translate(1193 2266)" fill="#fff" stroke="#707070" stroke-width="1"/>
    </clipPath>
  </defs>
  <g id="Mask_Group_73" data-name="Mask Group 73" transform="translate(-1193 -2266)" clip-path="url(#clip-path)">
    <g id="youtube" transform="translate(1195.644 2266)">
      <ellipse id="Ellipse_28" data-name="Ellipse 28" cx="10.356" cy="10.5" rx="10.356" ry="10.5" transform="translate(0)" fill="#d42428"/>
      <path id="Path_191" data-name="Path 191" d="M31.564,16.835a10.688,10.688,0,0,1,0,14.954,10.305,10.305,0,0,1-14.729,0Z" transform="translate(-13.712 -13.739)" fill="#cc202d"/>
      <path id="Path_192" data-name="Path 192" d="M47.882,29.893l-7.009-7.116-.565.574-.565-.574-.62.629.416.423-.136.138-1.079-1.1-.046.047-1.454-1.477-.62.629.17.172-.249.253-1.048-1.064-.435.441,1.022,2.5L35.2,26.29l1.258,1.278-3.183.226L33.231,33.4l5.122,5.206A10.5,10.5,0,0,0,47.882,29.893Z" transform="translate(-27.139 -17.49)" fill="#ba202e"/>
      <path id="Path_193" data-name="Path 193" d="M39.074,30.508H38.4l0-.4a.319.319,0,0,1,.316-.32h.043a.319.319,0,0,1,.317.32Zm-2.519-.849a.288.288,0,0,0-.309.259v1.926a.315.315,0,0,0,.62,0V29.917A.289.289,0,0,0,36.554,29.659Zm4.09-1.077v3.663a1.639,1.639,0,0,1-1.668,1.6H32.117a1.639,1.639,0,0,1-1.668-1.6V28.582a1.639,1.639,0,0,1,1.668-1.6h6.859A1.639,1.639,0,0,1,40.645,28.582Zm-8.07,4.061V28.784h.85v-.572l-2.267,0v.562l.708,0v3.87h.709Zm2.549-3.284h-.709V31.42a3.785,3.785,0,0,1,0,.5c-.058.16-.317.329-.418.017a4.186,4.186,0,0,1,0-.5l0-2.075h-.7l0,2.042c0,.313-.007.546,0,.653.017.187.011.406.182.53a.85.85,0,0,0,1.083-.368v.425h.569V29.359Zm2.268,2.36V30c0-.654-.482-1.045-1.136-.516l0-1.275h-.708l0,4.4.582-.009.053-.274C36.925,33.025,37.393,32.55,37.391,31.719Zm2.219-.227-.532,0c0,.022,0,.046,0,.073v.3a.292.292,0,0,1-.29.292h-.1a.292.292,0,0,1-.291-.292v-.792h1.217v-.465a7.465,7.465,0,0,0-.036-.874c-.087-.615-.937-.712-1.366-.4a.814.814,0,0,0-.3.407,2.32,2.32,0,0,0-.09.725v1.023C37.819,33.194,39.853,32.954,39.61,31.492Zm-2.727-5.552a.464.464,0,0,0,.461.3.445.445,0,0,0,.271-.086.656.656,0,0,0,.2-.258l-.013.282h.79V22.766h-.622v2.655a.259.259,0,1,1-.518,0V22.766H36.8v2.3c0,.293.005.489.014.588A1.017,1.017,0,0,0,36.884,25.939Zm-2.395-1.927a2.886,2.886,0,0,1,.08-.767.856.856,0,0,1,.29-.443.83.83,0,0,1,.536-.168.971.971,0,0,1,.47.108.788.788,0,0,1,.3.28,1.11,1.11,0,0,1,.147.355,2.868,2.868,0,0,1,.039.559V24.8a4.773,4.773,0,0,1-.037.7,1.111,1.111,0,0,1-.155.414.742.742,0,0,1-.3.284.954.954,0,0,1-.429.092,1.17,1.17,0,0,1-.457-.078.629.629,0,0,1-.291-.237,1.05,1.05,0,0,1-.148-.382,3.726,3.726,0,0,1-.044-.673v-.9Zm.619,1.355a.316.316,0,1,0,.628,0V23.551a.316.316,0,1,0-.628,0Zm-2.187.917h.746V23.668l.881-2.242h-.815l-.468,1.665-.475-1.67h-.807l.937,2.248Z" transform="translate(-24.861 -17.483)" fill="#fff"/>
    </g>
  </g>
</svg>
